<svg width="1049" height="716" viewBox="0 0 1049 716" fill="none" xmlns="http://www.w3.org/2000/svg">
<circle cx="514" cy="343" r="340" fill="#27AE60"/>
<path d="M797.394 250.691C796.327 249.147 795.119 248.094 793.058 248.586C791.139 248.445 790.784 246.831 790.286 245.498C788.651 240.655 785.737 236.655 781.97 233.216C777.421 229.145 772.162 227.04 765.978 228.514C763.988 229.005 763.206 228.514 761.998 227.04C755.53 219.46 744.727 217.776 736.34 223.039C730.156 226.899 726.247 232.795 722.907 239.041C722.267 240.304 721.698 241.567 720.348 242.199C714.307 244.936 711.606 250.34 709.473 256.025C706.844 263.043 707.057 270.412 707.341 277.711C707.412 279.536 706.986 280.94 705.564 282.343C698.67 289.151 691.705 295.959 684.455 302.416C674.22 311.68 663.701 320.523 652.826 329.015C641.383 337.998 629.585 346.701 617.644 355.122C614.872 357.088 612.669 357.789 609.755 356.035C607.338 354.491 604.709 355.052 602.932 356.877C599.023 360.737 594.687 364.246 591.702 368.878C589.925 371.615 587.935 373.23 584.523 372.808C583.386 372.668 582.178 373.159 581.04 373.3C573.578 374.633 572.583 373.861 572.44 366.492C572.44 365.018 572.938 363.474 572.796 362C572.654 360.035 573.578 359.053 575.141 358.14C585.163 351.754 594.047 344.244 601.084 334.699C602.932 332.173 604.922 331.752 607.765 332.313C615.867 333.787 622.335 329.997 624.112 321.926C625.676 314.768 628.519 308.381 632.499 302.275C633.92 300.1 634.773 297.503 635.768 295.046C637.83 290.204 632.57 280.87 625.747 281.361C622.762 281.571 620.203 282.484 617.573 283.396C615.867 284.028 614.659 283.817 613.451 282.624C609.399 278.694 604.922 275.255 600.231 272.167C598.667 271.114 598.383 269.921 598.809 268.307C600.089 263.324 599.449 258.411 597.601 253.709C596.961 252.095 596.89 250.832 598.241 249.358C600.018 247.393 601.794 245.428 603.003 242.901C608.689 230.83 607.978 219.46 599.804 208.722C599.023 207.74 598.454 206.827 599.165 205.283C603.074 196.721 601.155 190.334 593.336 184.65C592.484 184.018 591.631 183.527 591.631 182.263C591.489 174.543 589.427 167.244 586.655 160.156C579.832 143.032 569.029 129.416 551.118 122.398C548.843 121.486 547.351 120.222 546.071 118.047C536.618 101.624 518.992 95.869 501.01 103.168C499.73 103.659 498.38 103.94 497.243 103.589C493.12 102.185 488.998 102.256 484.733 102.957C477.057 104.291 470.376 107.449 465.472 113.415C460.355 119.591 457.938 126.89 457.512 134.82C457.37 137.417 456.73 139.593 455.024 141.838C446.424 152.927 439.885 164.999 438.535 179.175C437.468 189.773 439.103 200.23 441.662 210.547C444.576 222.267 447.632 233.918 450.191 245.708C450.902 248.866 452.11 252.095 451.47 255.534C450.049 253.849 448.912 252.095 447.845 250.41C446.353 248.024 444.86 245.638 443.439 243.252C442.586 241.848 441.235 241.357 439.814 241.848C438.463 242.339 438.89 243.813 438.89 244.936C438.89 247.884 438.89 250.761 439.103 253.709C439.53 259.745 440.027 265.78 440.525 271.816C440.667 273.079 441.022 274.694 442.586 274.694C444.434 274.694 444.292 272.799 443.936 271.746C442.728 267.886 443.51 263.885 442.87 259.955C442.302 256.516 442.728 252.937 442.728 249.428C446.708 257.639 455.095 263.394 455.166 273.5C455.166 275.746 455.45 276.869 452.821 277.852C445.358 280.589 440.88 286.133 440.596 294.064C440.24 303.258 446.566 312.732 459.004 313.925C462.132 314.206 462.345 315.961 462.487 317.856C463.056 325.295 463.695 332.664 463.908 340.103C464.193 350.35 463.411 360.597 462.558 370.773C462.487 371.966 462.345 373.3 460.852 373.861C459.36 374.423 458.293 373.721 457.441 372.668C455.237 370.071 452.607 367.825 449.907 365.79C444.576 361.79 439.459 357.017 431.925 360.807C430.645 361.439 429.721 360.526 428.797 359.754C424.533 356.456 420.268 353.157 415.933 349.929C395.036 334.349 375.278 317.435 357.082 298.696C350.686 292.099 344.36 285.782 345.852 275.185C346.705 269.289 345.355 263.254 343.223 257.499C341.872 253.849 340.095 250.41 336.613 248.375C335.12 247.533 334.409 246.48 333.912 245.006C331.779 238.69 328.581 233.075 324.317 227.882C316.356 218.267 300.649 217.214 292.048 226.759C291.196 227.742 290.414 227.952 289.063 227.671C286.362 227.11 283.662 226.127 280.747 226.759C271.152 228.935 265.04 235.181 261.06 243.673C260.278 245.287 259.425 246.27 257.719 246.761C242.438 251.323 239.808 263.394 240.661 275.115C241.656 288.309 248.906 298.977 257.577 308.802C261.415 313.153 266.39 316.241 269.802 320.944C284.799 341.507 300.577 361.509 317.493 380.599C335.831 401.373 355.163 421.094 376.059 439.411C377.836 440.955 378.263 442.289 377.694 444.535C376.628 448.605 377.765 452.185 380.75 455.343C389.706 464.817 400.865 470.713 412.663 475.906C418.065 478.292 423.751 479.556 429.437 480.749C431.925 481.31 432.849 482.503 431.072 484.749C430.574 485.381 430.219 486.153 429.721 486.784C421.334 499.137 411.81 510.717 402.499 522.367C388.711 539.632 377.552 558.16 371.439 579.425C369.165 587.286 368.099 595.286 367.459 603.357C367.246 605.954 368.17 608.41 369.378 610.586C370.302 612.2 372.221 612.13 374.14 611.99C374.851 611.92 376.059 612.902 376.273 613.604C376.983 616.201 378.831 616.271 380.964 615.92C381.959 614.306 380.608 611.709 383.949 610.867C396.6 607.779 408.47 602.305 420.695 598.023C422.4 597.462 424.035 596.76 425.812 597.322C450.333 601.813 474.996 605.322 499.872 607.358C516.078 608.691 532.354 609.744 548.63 609.954C564.48 610.095 580.259 610.305 596.108 609.463C614.304 608.551 632.428 607.638 650.055 602.515C652.471 601.813 654.532 602.375 656.167 604.129C658.015 606.094 657.375 608.481 657.162 610.797C657.02 612.481 655.954 614.165 657.091 615.85C658.655 615.92 660.147 615.92 661.711 615.92C665.549 615.92 668.25 614.025 669.032 610.305C670.098 604.621 671.022 598.936 671.235 593.111C671.519 584.759 670.737 576.477 669.174 568.196C666.473 553.528 661.284 539.842 654.248 526.718C644.582 508.611 632.001 492.82 615.654 480.117C614.304 479.064 611.461 478.292 612.1 476.397C612.527 475.064 615.441 475.415 617.218 474.994C639.962 470.151 660.147 460.747 676.566 444.114C680.475 440.113 682.678 435.481 681.754 429.937C681.399 427.831 682.252 426.708 683.531 425.445C689.715 419.339 695.969 413.304 701.868 406.987C714.662 393.302 727.313 379.476 739.396 365.229C749.773 353.017 759.866 340.595 769.745 328.032C773.441 323.33 776.497 318.207 781.757 314.978C793.84 307.539 802.582 297.503 807.131 284.028C811.182 271.184 807.7 258.481 797.394 250.691ZM480.398 123.802C473.433 126.679 467.32 130.96 460.781 135.733C460.781 128.925 462.7 123.31 465.899 118.257C471.869 108.642 481.18 105.554 492.054 105.695C492.623 105.695 493.263 105.484 493.547 106.256C493.831 107.098 493.263 107.519 492.694 107.94C487.648 111.871 484.307 116.994 481.535 122.538C481.251 122.959 480.824 123.591 480.398 123.802ZM510.25 116.362C502.929 117.204 495.75 118.678 488.998 120.573C486.653 120.784 486.653 119.942 487.576 118.608C489.709 115.66 491.699 112.643 494.684 110.467C499.588 106.747 508.259 109.063 511.031 114.678C511.458 115.59 511.529 116.222 510.25 116.362ZM542.304 118.748C541.523 120.012 540.456 118.678 539.533 118.468C532.78 116.994 525.886 116.152 518.921 116.432C516.859 116.503 515.509 116.011 514.159 114.327C512.026 111.59 509.752 108.853 506.625 107.028C506.056 106.677 505.203 106.326 505.345 105.554C505.559 104.712 506.483 104.501 507.264 104.361C510.25 103.87 513.235 103.449 515.651 103.098C526.455 103.87 535.126 107.449 541.238 115.941C541.878 116.783 542.802 117.836 542.304 118.748Z" fill="#110D0D"/>
<path d="M424.675 596.129C434.057 597.673 443.368 599.287 452.75 600.62C461.136 601.883 469.452 603.006 477.839 603.919C489.353 605.182 500.939 606.375 512.524 607.358C519.489 607.919 526.455 607.849 533.349 608.27C552.042 609.253 570.663 609.182 589.356 608.551C607.125 607.989 624.894 607.358 642.236 603.217C644.155 602.726 646.074 602.305 647.993 601.813C655.598 599.638 659.579 603.217 657.944 611.077C657.588 612.692 657.091 614.236 656.665 615.78C655.456 615.85 654.319 615.85 653.111 615.85C580.33 615.85 507.477 615.85 434.696 615.85C433.417 615.85 432.067 615.78 430.787 615.709C430.432 615.358 430.716 615.92 430.503 615.569C427.162 609.674 425.101 603.357 424.177 596.69C424.248 596.55 424.533 596.339 424.675 596.129Z" fill="#009CD4"/>
<path d="M424.675 596.129C426.096 602.866 428.797 609.253 430.93 615.709C414.156 615.709 397.382 615.709 380.608 615.78C379.542 611.148 379.471 611.077 383.949 609.814C396.458 606.375 408.328 601.111 420.481 596.83C421.832 596.409 423.04 595.216 424.675 596.129Z" fill="#0088B3"/>
<path d="M797.394 250.691C795.972 249.989 794.48 249.287 793.058 248.586C795.617 247.042 797.323 247.182 797.394 250.691Z" fill="#0093DC"/>
<path d="M457.156 481.17C457.654 480.328 459.786 480.679 459.217 479.345C458.436 477.661 456.517 478.854 455.095 478.573C449.125 474.573 442.373 472.046 436.473 467.835C425.812 460.256 414.795 452.957 406.195 442.921C404.987 441.517 402.926 440.324 403.992 437.938C414.44 426.568 423.467 414.146 431.001 400.741C435.763 392.249 439.032 383.125 442.302 374.072C444.363 373.651 445.5 375.265 446.779 376.318C458.436 385.301 466.965 396.811 474.285 409.373C476.489 413.163 478.905 416.672 482.175 419.62C484.449 424.954 485.515 430.498 486.368 436.183C486.51 437.306 486.013 439.271 487.79 439.201C489.14 439.131 488.429 437.236 488.572 436.183C489.14 431.13 487.932 426.287 486.51 421.515C485.729 418.848 486.368 418.146 489.14 418.216C497.385 418.357 505.701 418.006 513.945 418.287C517.855 418.427 519.489 416.813 520.413 413.514C522.83 404.952 524.393 396.249 527.45 387.827C527.947 386.494 528.445 385.231 528.871 383.897C529.156 382.915 529.795 381.792 528.445 381.16C527.094 380.528 526.099 381.3 525.602 382.494C524.322 385.582 522.901 388.67 522.048 391.898C520.271 398.355 518.565 404.812 517.428 411.409C517.073 413.444 516.362 414.848 513.59 414.777C504.279 414.637 494.968 414.356 485.657 414.988C484.52 415.058 483.881 414.637 483.525 413.655C482.814 411.479 482.033 409.303 481.251 407.128C480.682 405.864 481.038 404.601 481.464 403.408C484.591 394.846 487.861 386.354 492.339 378.423C493.547 376.247 495.182 374.423 497.598 373.51C506.483 373.019 515.367 373.089 524.251 373.931C528.658 374.352 531.927 376.598 534.699 379.756C543.157 389.582 550.478 400.25 558.581 410.356C559.22 411.198 559.86 412.04 560.642 412.672C562.561 414.356 564.196 414.427 565.83 412.04C569.029 407.478 571.73 402.636 575.71 398.636L575.639 398.565C575.497 399.829 576.065 400.741 576.847 401.724C588.717 417.374 596.18 435.06 601.368 453.799C603.145 460.115 604.637 466.432 605.846 472.888C604.282 473.099 603.5 471.976 602.434 471.695C601.368 471.415 599.947 470.853 599.307 472.257C598.738 473.45 599.804 474.222 600.657 474.783C603.571 476.748 606.557 478.573 609.471 480.538C625.96 491.487 638.043 506.365 647.993 523.069C656.665 537.737 662.564 553.528 665.62 570.161C667.752 581.741 668.25 593.462 666.473 605.463C662.777 603.919 660.503 601.041 657.517 599.006C648.704 593.041 638.469 590.303 628.448 587.215C620.772 584.829 612.882 583.145 605.064 581.531C594.403 579.285 583.528 578.162 572.725 577.179C555.311 575.495 537.827 575.635 520.413 576.056C487.79 576.828 455.735 581.39 424.604 591.216C424.391 591.286 424.106 591.216 423.893 591.146C421.903 587.286 422.685 583.075 423.04 579.144C423.964 569.67 424.32 560.055 426.665 550.721C431.427 531.631 436.9 512.822 446.566 495.487C449.48 490.364 453.389 485.802 457.156 481.17Z" fill="white"/>
<path d="M578.695 270.553C579.406 270.272 580.117 269.991 580.827 269.781C583.741 270.061 586.087 271.746 588.646 272.939C595.042 275.957 601.013 279.747 606.628 284.028C607.978 285.081 609.471 286.133 609.897 288.028C609.755 289.151 606.912 290.765 610.466 291.327C612.385 291.818 613.877 290.625 615.441 289.923C618.071 288.66 620.701 287.818 623.615 288.239C628.732 289.011 631.149 293.643 628.803 298.134C627.524 300.591 625.96 302.977 624.681 305.504C622.904 309.153 621.127 312.803 620.416 316.943C619.137 324.523 613.095 329.857 605.277 327.681C604.922 327.611 604.566 327.681 604.282 327.822C601.723 327.33 600.018 325.506 598.17 323.962C597.459 323.4 596.606 322.067 595.469 323.19C594.545 324.102 594.971 325.295 595.54 326.418C596.251 327.751 597.672 328.243 598.667 329.225C599.804 330.278 600.586 331.05 599.165 332.664C592.057 341.016 584.31 348.596 574.857 354.35C562.632 361.72 549.625 366.773 535.055 366.492C524.465 366.281 514.869 362.702 506.198 356.737C499.659 352.736 497.101 346.069 494.897 339.472C489.993 324.312 492.196 309.644 500.228 296.029C503.853 289.853 509.823 286.203 516.504 283.677C524.465 280.659 532.709 279.817 541.238 280.238C547.564 280.519 553.961 280.589 560.358 280.168C567.963 279.536 574.075 276.378 578.695 270.553Z" fill="#E4B27C"/>
<path d="M635.555 374.774C650.908 386.705 663.559 400.881 672.941 417.866C675.215 421.936 676.708 426.358 677.845 430.779C679.053 435.341 676.424 438.78 673.438 441.938C661.356 454.571 646.501 462.782 629.94 468.046C624.041 469.941 618.071 471.485 611.887 472.327C609.826 472.608 609.4 471.976 609.115 470.011C606.77 456.957 603.074 444.254 597.885 431.972C596.748 429.305 595.54 426.708 594.332 424.042C593.479 422.147 593.194 420.673 596.18 421.024C598.17 421.234 600.16 420.813 602.15 420.462C607.267 419.48 607.836 418.848 606.912 413.725C606.059 408.952 605.135 404.18 604.211 399.408C603.429 397.653 604.78 396.811 605.846 396.039C614.73 389.301 623.473 382.423 632.357 375.686C633.281 375.054 634.205 374.282 635.555 374.774Z" fill="white"/>
<path d="M457.156 481.17C456.872 483.626 455.166 485.451 453.745 487.135C447.206 494.715 443.297 503.628 439.53 512.612C433.773 526.578 429.792 541.176 426.594 555.914C425.457 560.967 425.599 566.231 424.746 571.424C423.68 577.951 423.751 584.619 423.964 591.216C408.683 596.55 394.042 603.708 377.979 606.937C371.297 608.27 371.226 608.41 371.44 601.743C371.937 587.777 376.059 574.653 381.674 561.95C389.919 543.422 401.647 527.069 414.795 511.629C422.116 503.067 428.655 494.013 434.839 484.609C435.905 482.995 436.9 482.293 439.103 482.433C445.145 483.065 451.257 482.854 457.156 481.17Z" fill="#E1D8D4"/>
<path d="M548.915 231.181C549.839 246.48 534.842 263.815 515.296 264.236C500.726 264.517 486.439 256.306 481.606 243.182C477.2 231.391 481.038 218.758 489.14 210.407C499.944 199.388 516.149 196.651 530.435 202.616C540.03 206.687 549.91 219.25 548.915 231.181Z" fill="white"/>
<path d="M591.773 250.972C590.422 248.024 589.783 244.936 587.295 242.69C583.386 239.251 579.05 237.848 573.791 238.69C567.181 239.743 560.784 241.708 554.174 242.901C552.113 243.252 550.62 243.603 551.402 240.234C553.605 231.321 552.966 222.478 548.133 214.337C547.066 212.512 547.777 211.6 548.843 210.407C554.316 204.581 561.068 201.283 569.029 200.23C578.482 198.967 586.726 201.423 593.834 207.529C603.358 215.67 606.983 228.303 599.449 241.848C597.53 245.357 595.184 248.445 591.773 250.972Z" fill="white"/>
<path d="M404.063 437.938C405.414 441.798 408.328 444.745 411.242 447.272C424.106 458.22 437.113 468.888 452.75 475.976C453.958 476.538 455.166 477.029 455.166 478.643C440.027 480.749 425.67 477.52 411.739 471.906C402.784 468.256 394.681 463.273 387.147 457.308C384.233 454.992 384.233 454.571 387.503 452.606C393.97 448.746 398.732 443.061 404.063 437.938Z" fill="#E1D8D4"/>
<path d="M578.695 270.553C576.279 276.729 570.948 279.045 565.049 280.168C554.387 282.133 543.513 280.378 532.781 280.94C521.764 281.571 511.387 284.589 503.569 293.011C498.167 298.836 495.679 306.276 494.329 313.855C492.978 321.505 492.694 329.295 495.182 336.945C497.527 344.174 500.441 351.122 506.198 356.526C495.892 350.49 488.856 341.788 486.439 330.208C482.957 313.294 488.287 298.696 500.583 286.765C507.549 280.027 516.504 277.009 525.886 275.325C535.197 273.641 544.579 274.202 553.961 274.904C561.068 275.395 568.176 273.921 574.999 271.605C576.208 271.184 577.487 270.904 578.695 270.553Z" fill="#BF895D"/>
<path d="M635.555 374.773C628.945 378.774 623.259 384.038 617.005 388.529C613.238 391.266 609.684 394.284 605.917 397.091C604.993 397.793 604.211 398.355 604.14 399.478C602.079 393.302 599.875 387.126 597.956 380.95C597.317 378.984 596.535 377.44 594.9 376.107C592.697 374.352 591.844 372.668 594.829 370.352C598.099 367.755 600.231 363.965 603.429 361.158C605.135 359.684 606.557 359.263 608.76 360.035C618.568 363.474 627.595 368.106 635.555 374.773Z" fill="#E1D8D4"/>
<path d="M590.92 377.511C593.194 378.844 594.118 381.02 595.042 383.336C598.952 392.881 600.8 402.917 603.358 412.812C603.998 415.339 603.216 417.164 600.302 417.515C597.743 417.795 595.114 417.865 592.555 418.076C591.062 418.216 590.991 416.883 590.494 416.111C587.082 410.847 583.955 405.443 580.046 400.46C578.908 399.057 577.842 397.653 575.71 398.635L575.781 398.706C577.558 394.354 580.543 390.775 583.102 386.915C583.955 385.582 585.305 384.459 584.95 382.564C586.371 380.178 587.793 377.862 590.92 377.511Z" fill="white"/>
<path d="M497.74 373.58C491.059 380.107 488.358 388.81 484.947 397.021C483.596 400.32 482.53 403.829 481.322 407.198C476.204 396.741 469.879 386.845 462.416 377.23C474.641 375.616 486.084 373.58 497.74 373.58Z" fill="#E1D8D4"/>
<path d="M482.175 419.69C477.057 417.655 475.494 412.742 473.006 408.672C464.904 395.337 455.522 383.125 442.373 374.212C442.87 371.264 443.865 368.387 442.017 365.299C444.718 365.58 445.784 367.334 447.135 368.457C463.269 382.494 475.565 399.197 482.175 419.69Z" fill="#E1D7D3"/>
<path d="M604.211 327.751C604.993 326.979 605.988 327.26 606.912 327.26C614.304 327.05 618.497 323.962 619.563 316.803C620.487 310.697 623.543 305.644 626.386 300.521C629.229 295.257 629.656 293.292 627.239 290.765C625.107 288.519 620.416 288.449 616.365 290.414C614.517 291.327 612.811 293.643 610.466 291.327C615.299 288.519 619.776 284.94 625.818 285.221C630.011 285.361 632.996 289.221 632.215 293.292C631.646 296.31 630.225 298.977 628.59 301.503C624.965 307.118 621.98 312.803 620.914 319.61C620.203 324.383 617.502 328.243 612.029 329.225C609.328 329.576 606.77 328.523 604.211 327.751Z" fill="#EFD4B8"/>
<path d="M590.92 377.511C588.93 379.195 586.94 380.879 584.95 382.564C582.391 382.072 581.467 384.178 580.259 385.652C578.197 388.178 576.421 390.845 574.146 394.004C572.511 388.529 572.938 383.476 572.938 378.493C572.938 377.791 573.009 377.09 574.004 377.019C579.264 376.668 584.523 375.405 589.712 376.949C590.209 376.949 590.565 377.3 590.92 377.511Z" fill="#E2D7D3"/>
<path d="M454.1 247.743C454.882 251.954 455.522 256.236 456.232 260.727C457.654 259.745 457.725 258.622 457.938 257.499C459.075 251.112 460.07 244.655 462.345 238.55C463.766 234.619 466.112 234.409 468.67 237.778C469.239 238.479 469.808 239.251 470.163 240.094C473.148 246.761 475.849 253.569 477.555 260.657C477.91 261.99 478.052 263.394 476.56 263.956C474.854 264.587 474.357 263.043 474.001 261.85C472.864 258.341 472.011 254.692 470.661 251.253C469.31 247.743 468.599 243.813 465.827 240.655C464.335 243.041 464.264 245.287 463.624 247.322C461.634 254.2 461.989 261.499 458.151 268.026C456.232 271.255 458.862 275.816 462.345 277.08C464.335 277.781 466.183 278.834 467.96 280.027C469.381 281.01 470.021 282.273 468.599 283.747C468.599 287.116 468.102 290.134 464.193 291.186C463.127 292.801 465.259 294.415 464.193 296.38C462.345 294.836 461.137 292.099 458.009 293.643C454.953 295.187 456.801 298.064 456.161 300.591C454.171 299.257 453.46 297.503 454.171 295.889C455.593 292.66 455.45 290.976 451.328 291.397C450.973 291.467 450.688 290.765 450.404 290.414C448.556 289.853 447.206 288.239 445.287 287.747C444.363 289.011 443.936 290.414 443.794 291.958C442.23 304.872 455.45 313.996 467.604 307.96C468.813 307.328 470.234 305.995 471.229 307.89C472.011 309.504 470.305 310.276 469.239 311.048C468.742 311.399 468.244 311.68 467.675 311.89C465.756 312.662 465.401 313.785 465.614 315.961C467.391 333.927 467.889 351.964 465.614 369.931C465.401 371.475 465.472 372.177 467.178 371.966C468.244 371.896 469.31 371.966 470.376 371.826C480.895 370.212 491.415 369.58 502.076 369.65C502.005 365.65 502.076 361.649 500.654 357.86C498.593 355.965 496.461 354.14 494.542 352.105C486.084 343.262 481.677 332.734 481.89 320.523C482.033 309.293 485.515 299.117 492.196 289.993C492.836 288.59 493.334 287.116 493.049 285.572C492.125 280.027 492.694 274.413 492.552 268.798C492.481 265.851 492.339 262.973 490.775 260.376C490.277 259.885 489.851 259.324 489.353 258.902C477.91 250.41 473.219 233.075 478.692 219.951C480.54 215.46 483.525 211.74 486.581 208.09C487.505 206.266 486.866 204.371 486.51 202.616C485.657 198.125 484.876 193.703 484.236 189.211C482.814 178.684 482.53 168.087 484.165 157.559C486.155 144.716 493.405 134.61 502.147 125.346C503.64 123.802 506.056 123.029 506.411 120.503C500.725 120.924 495.324 122.468 489.993 124.152C484.023 125.977 483.099 127.381 483.028 133.557C482.957 136.575 482.957 139.593 482.957 142.681C482.957 143.663 482.743 144.646 481.535 144.716C480.54 144.786 480.043 143.944 479.758 143.242C479.474 142.259 479.332 141.207 479.332 140.154C479.332 136.855 479.332 133.627 479.403 130.328C479.474 128.784 478.905 128.434 477.555 129.135C472.153 132.083 466.965 135.241 462.7 139.663C461.35 141.066 460.994 142.47 460.923 144.365C460.781 146.119 463.269 148.716 460.284 149.488C457.867 150.12 458.649 146.541 456.943 145.628C455.806 145.839 455.308 146.891 454.74 147.663C446.495 158.893 442.23 171.525 441.875 185.351C441.591 196.931 444.221 208.161 447.206 219.249C449.551 228.864 452.323 238.199 454.1 247.743Z" fill="#E5A219"/>
<path d="M401.362 429.305C393.046 420.883 384.73 412.391 376.415 403.969C361.844 389.371 347.345 374.633 332.988 359.754C323.321 349.718 313.229 340.174 304.7 329.085C297.095 319.259 293.754 308.17 292.688 296.239C292.333 292.169 291.409 288.449 289.063 285.151C284.514 295.467 273.711 296.731 265.04 294.134C260.491 292.73 257.079 289.783 254.45 285.923C251.18 281.08 252.673 275.185 250.967 269.991C250.896 269.781 251.322 269.43 251.535 269.149C251.251 265.289 248.835 262.341 247.2 259.113C243.362 265.429 243.646 272.377 244.925 279.045C247.058 290.274 253.739 299.117 261.273 307.469C265.182 311.82 270.299 314.908 273.64 319.821C285.438 337.015 298.516 353.157 312.092 368.948C327.941 387.406 344.715 405.162 362.555 421.796C370.8 429.516 379.116 437.025 387.502 444.605C388.497 445.517 389.564 446.5 391.127 445.096C395.889 440.745 400.509 436.323 404.845 431.551C403.068 431.621 402.286 430.288 401.362 429.305Z" fill="#E5A219"/>
<path d="M714.946 252.446C710.753 260.376 710.113 268.868 710.753 277.501C711.037 280.94 709.758 283.536 707.27 285.852C701.087 291.467 695.045 297.082 688.933 302.766C675.002 315.68 660.218 327.611 645.15 339.191C637.119 345.367 629.016 351.262 620.843 357.228C618.781 358.702 618.568 359.404 621.056 360.737C627.168 363.965 632.854 367.966 638.256 372.247C639.393 371.054 640.388 369.72 641.597 368.668C650.907 360.316 660.36 352.034 669.671 343.683C675.357 338.63 680.901 333.436 686.658 328.453C694.903 321.365 703.29 314.346 710.824 306.486C716.368 300.661 720.632 293.923 719.85 285.642C719.353 280.308 719.495 274.974 719.282 269.64C719.14 266.201 720.135 262.973 721.556 259.885C722.622 257.429 723.902 255.113 724.684 252.516C725.892 248.656 728.735 246.34 732.715 245.357C734.208 245.006 735.629 244.515 737.051 244.094C735.061 243.954 733.07 243.603 731.08 243.673C723.831 243.603 719.069 244.655 714.946 252.446Z" fill="#E5A219"/>
<path d="M642.521 596.339C628.163 590.795 613.451 586.864 598.241 584.197C581.893 581.32 565.404 579.776 548.843 579.565C533.065 579.355 517.215 579.425 501.436 580.758C491.912 581.601 482.459 582.513 473.077 583.917C461.136 585.741 449.409 588.479 437.753 591.567C435.905 592.058 433.701 592.339 432.067 593.883C439.53 595.707 447.064 596.269 454.384 597.602C454.811 596.83 455.521 596.409 456.303 596.128C461.207 594.514 466.041 592.76 471.087 591.426C478.905 589.321 486.937 588.128 494.968 586.794C505.772 585.04 516.504 583.004 527.379 582.513C537.613 582.022 547.919 582.373 558.154 582.373C558.865 582.373 559.576 582.373 560.144 582.934C560.642 583.917 561.566 584.268 562.561 584.478C563.272 583.145 564.338 582.864 565.759 583.145C572.298 584.338 578.908 585.601 585.518 586.513C599.022 588.479 612.385 590.724 625.391 595.005C629.585 596.409 633.849 597.883 637.545 600.41C640.388 599.778 643.302 599.567 645.932 598.234C645.079 596.83 643.729 596.76 642.521 596.339Z" fill="#E5A219"/>
<path d="M783.321 252.165C778.061 253.919 773.939 257.288 770.03 261.008C765.978 264.868 764.841 269.71 763.846 274.974C763.135 278.904 763.846 281.922 766.689 284.589C767.471 282.063 768.111 279.466 768.963 276.939C774.01 262.412 786.732 256.235 799.597 257.779C795.688 251.954 789.86 249.919 783.321 252.165Z" fill="#E5A219"/>
<path d="M759.866 228.724C758.444 227.11 756.809 225.847 754.819 225.004C742.026 219.39 731.293 228.022 726.887 239.602C731.293 239.602 735.629 239.322 739.751 240.936C740.604 238.971 742.097 237.567 743.661 236.163C748.067 232.233 753.469 231.812 758.871 231.18C760.292 230.689 761.145 230.128 759.866 228.724Z" fill="#E5A219"/>
<path d="M776.497 238.269C779.056 238.55 781.473 239.532 783.96 240.234C777.777 231.04 768.537 228.584 760.505 234.198C756.454 237.006 753.611 240.795 752.19 245.568C751.763 247.042 751.763 248.235 753.043 249.287C754.322 250.41 755.53 251.744 756.738 253.007C759.155 251.884 759.653 249.428 760.719 247.463C764.557 240.234 769.177 237.427 776.497 238.269Z" fill="#E5A219"/>
<path d="M265.537 246.691C271.081 249.147 275.843 252.656 280.108 256.937C282.88 259.745 285.012 263.043 287.5 266.763C288.352 264.798 288.992 263.394 289.561 261.92C284.657 256.165 279.539 250.551 274.919 244.585C271.65 240.304 272.858 236.374 277.904 234.198C280.89 232.935 284.088 232.163 286.86 230.408C286.576 230.198 286.291 229.917 286.007 229.847C275.559 228.373 267.741 236.514 264.187 244.375C263.689 245.568 264.329 246.2 265.537 246.691Z" fill="#E5A219"/>
<path d="M295.247 230.759C298.303 233.146 300.791 236.093 302.639 239.602C303.776 241.708 303.349 245.287 305.624 245.849C307.614 246.34 310.173 244.515 312.447 243.673C311.736 242.48 310.883 241.357 310.244 240.164C306.05 232.093 306.619 229.005 313.158 224.232C306.619 221.355 300.791 223.18 295.318 226.97C293.754 228.092 293.257 229.215 295.247 230.759Z" fill="#E5A219"/>
<path d="M293.896 277.641C294.252 270.412 296.881 264.026 301.999 258.832C305.553 255.253 309.32 252.165 314.437 250.551C321.331 248.445 327.657 250.06 334.054 252.095C334.125 251.814 334.267 251.533 334.338 251.323C327.87 247.252 320.763 246.48 313.442 247.744C302.638 249.638 296.313 257.148 291.622 265.991C289.347 270.202 289.276 275.185 292.546 279.466C293.328 279.185 293.896 278.554 293.896 277.641Z" fill="#E5A219"/>
<path d="M568.744 269.711C574.715 268.307 580.685 266.833 584.31 261.219C582.888 261.219 581.538 261.289 580.188 261.92C571.374 265.64 562.205 266.833 552.61 265.64C547.564 265.008 542.375 265.359 538.964 270.272C548.843 270.833 558.794 272.027 568.744 269.711Z" fill="#E5A219"/>
<path d="M275.701 291.256C279.184 290.484 282.311 289.221 284.159 285.852C278.046 288.309 272.36 286.975 266.959 283.747C265.821 286.835 263.831 285.08 262.268 284.379C260.135 283.536 258.856 281.361 256.582 280.659C256.084 281.571 256.582 282.273 256.937 283.045C260.349 289.642 268.025 293.011 275.701 291.256Z" fill="#E5A219"/>
<path d="M609.897 287.958C602.363 281.01 593.479 276.027 584.168 271.676C583.03 271.114 581.964 270.412 580.827 269.781C582.888 268.307 584.949 268.237 587.295 269.36C595.398 273.22 603.074 277.711 609.968 283.466C611.816 285.08 612.527 286.554 609.897 287.958Z" fill="#EED4B7"/>
<path d="M803.222 262.763C802.724 266.693 803.435 270.693 802.653 274.623C800.095 287.607 791.566 296.24 781.118 303.328C774.223 307.96 767.969 312.732 763.064 319.61C754.322 331.892 744.869 343.753 735.061 355.263C725.466 366.632 715.16 377.37 705.067 388.319C695.898 398.355 686.872 408.531 676.708 417.655C677.348 418.988 678.13 420.322 678.556 421.726C679.267 424.042 680.191 424.252 681.897 422.427C683.816 420.392 685.948 418.497 687.867 416.462C699.807 403.759 711.89 391.126 723.404 378.072C739.183 360.176 754.464 341.858 768.893 322.909C771.594 319.4 773.797 315.329 778.132 313.013C790.997 306.065 799.526 295.397 803.933 281.642C805.994 275.466 805.994 269.009 803.222 262.763Z" fill="#FFE493"/>
<path d="M367.53 313.575C358.859 305.433 350.614 297.012 343.507 287.467C342.725 286.344 342.228 285.361 342.228 283.958C342.512 276.939 342.37 269.921 340.664 263.113C339.598 258.832 339.242 253.779 334.338 251.323C334.125 251.533 334.054 251.814 334.054 252.095C336.115 255.744 338.034 259.394 338.816 263.605C339.882 269.921 338.887 276.097 337.679 282.203C336.826 286.484 337.039 290.274 340.309 293.853C344.928 298.977 349.691 303.96 354.879 308.521C363.479 316.171 371.582 324.312 380.395 331.752C389.99 339.823 400.012 347.473 410.033 354.982C415.364 358.983 421.263 362.211 428.015 363.544C423.04 359.684 418.136 355.895 413.161 351.964C397.524 339.753 382.03 327.19 367.53 313.575Z" fill="#FFE493"/>
<path d="M592.626 188.229C588.93 186.194 588.361 182.965 587.935 179.667C586.371 167.034 582.249 155.454 574.644 145.137C568.034 136.294 560.002 129.135 549.057 125.977C548.275 125.626 548.133 125.977 548.204 126.679C551.189 128.925 554.458 130.89 557.23 133.346C572.369 147.102 579.335 164.788 582.036 184.369C582.391 187.246 583.315 188.931 585.874 190.405C590.138 192.791 591.773 196.581 590.991 200.862C591.844 201.493 592.768 202.055 593.55 202.687C595.54 204.371 596.464 203.248 597.032 201.423C598.596 196.861 596.89 190.615 592.626 188.229Z" fill="#FFE493"/>
<path d="M569.384 369.229C569.953 361.79 569.953 361.79 563.201 364.387C562.916 364.527 562.632 364.808 562.348 364.948C562.064 371.124 563.414 377.16 563.84 383.266C564.409 390.775 565.191 398.214 565.902 405.724C568.247 403.057 571.09 400.53 570.664 396.53C569.669 387.477 568.673 378.423 569.384 369.229Z" fill="#FFE493"/>
<path d="M574.573 242.129C567.465 244.024 560.215 245.428 552.966 246.48C549.767 246.901 547.706 247.884 546.711 250.902C554.458 250.411 561.921 248.656 569.74 248.305C578.269 247.884 583.884 251.393 585.305 259.955C587.651 257.359 587.508 254.13 587.153 251.042C586.371 244.305 579.406 240.866 574.573 242.129Z" fill="#FFE493"/>
<path d="M742.168 278.694C746.646 281.361 751.266 281.571 755.815 278.975C760.435 276.308 760.861 271.816 760.435 267.044C760.221 264.587 758.942 262.552 757.663 260.447C756.881 261.429 757.023 262.622 756.81 263.745C756.241 266.482 755.744 269.219 753.967 271.535C750.697 275.676 745.011 276.518 739.183 273.922C738.046 273.43 737.051 271.746 735.487 273.15C737.264 275.606 739.681 277.22 742.168 278.694Z" fill="#FFE493"/>
<path d="M318.702 269.5C314.65 275.676 309.107 279.115 301.644 279.606C299.725 279.747 297.948 280.519 297.877 282.905C298.872 284.028 300.222 283.817 301.502 283.817C308.467 283.817 313.584 280.098 318.133 275.466C320.265 273.29 321.332 270.412 323.748 268.518C321.616 266.903 319.981 267.535 318.702 269.5Z" fill="#FFE493"/>
<path d="M593.408 254.411C592.27 254.411 591.417 255.043 591.417 256.376C591.631 260.096 591.062 263.886 592.057 267.605C594.687 269.57 595.54 269.079 595.966 265.71C596.322 262.482 595.753 259.534 595.042 256.446C594.758 255.534 594.545 254.341 593.408 254.411Z" fill="#FFE493"/>
<path d="M381.248 447.623C381.603 446.921 380.537 445.237 382.314 445.447C383.949 445.658 385.512 446.781 385.654 448.535C385.868 450.29 384.02 451.062 382.883 450.992C381.035 450.921 381.39 449.026 381.248 447.623Z" fill="#D7CDCA"/>
<path d="M436.615 362.772C438.037 362.772 439.032 363.544 439.458 364.878C439.601 365.369 439.601 366.211 438.748 366.071C437.326 365.86 435.976 365.229 435.407 363.895C434.981 362.913 435.976 362.913 436.615 362.772Z" fill="#D0C6C2"/>
<path d="M662.635 608.832C663.772 609.744 665.123 610.305 664.127 611.849C663.843 612.341 663.204 612.902 662.706 612.481C661.498 611.358 662.635 610.235 662.635 608.832Z" fill="#EFEBEB"/>
<path d="M614.375 299.959C612.598 302.275 610.252 304.1 608.973 306.697C607.836 309.013 607.054 311.75 609.257 313.785C611.319 315.75 613.948 315.54 616.294 313.785C616.436 316.171 615.37 317.996 613.024 318.487C610.252 319.119 607.836 318.136 606.13 315.891C602.647 311.258 605.064 303.328 610.75 300.871C611.816 300.45 613.095 300.31 614.375 299.959Z" fill="#BF8A5D"/>
<path d="M436.971 369.51C433.986 367.545 431.001 365.58 428.015 363.614C422.685 360.807 416.786 359.053 412.024 355.333C399.656 345.718 386.934 336.664 375.349 326.067C371.297 322.347 367.246 318.557 363.124 314.838C355.803 308.1 348.056 301.784 341.588 294.064C338.461 290.344 337.537 286.554 338.603 282.133C339.527 278.132 340.166 274.062 340.166 269.991C340.237 263.324 339.029 257.008 334.267 251.814C326.165 247.673 317.778 247.042 309.817 251.463C301.004 256.376 295.034 263.675 293.257 273.851C292.972 275.676 292.83 277.571 292.475 279.396C293.612 281.431 295.389 282.554 297.734 282.835C299.085 281.782 300.364 280.448 302.283 280.308C309.533 279.747 314.864 275.957 319.057 270.412C320.194 268.868 321.687 268.096 323.606 268.377C326.875 268.588 326.165 270.412 325.027 272.167C321.829 277.15 317.778 281.291 312.518 284.238C311.239 284.94 310.741 285.361 311.168 287.116C312.447 292.309 311.807 297.503 309.178 302.205C308.609 303.188 307.898 305.012 306.477 304.31C305.268 303.749 306.192 302.275 306.619 301.222C307.898 297.713 308.467 294.064 308.111 290.274C307.898 287.888 307.045 286.625 304.131 287.046C299.511 287.677 295.105 287.046 291.409 283.677C289.49 281.922 289.134 283.326 288.921 284.94C289.134 288.098 291.551 290.695 291.48 293.923C291.409 298.485 292.901 302.907 293.399 307.398C294.678 318.347 301.501 326.699 308.04 334.91C316.854 345.999 327.373 355.684 337.394 365.72C351.681 380.107 365.611 394.916 380.324 408.952C380.893 409.514 381.461 410.145 382.03 410.777C387.929 417.795 394.894 423.831 401.362 430.288C402.215 431.13 403.139 432.323 404.703 431.411C409.323 426.498 413.516 421.164 417.496 415.69C426.807 402.846 433.275 388.74 437.611 373.651C438.108 372.247 438.819 370.773 436.971 369.51Z" fill="#F9CC03"/>
<path d="M803.222 262.762C802.582 260.727 801.445 258.973 799.668 257.709C798.602 257.008 797.536 256.306 796.114 256.376C785.595 256.797 776.995 260.797 771.451 269.781C768.679 274.202 766.263 278.975 766.76 284.519C771.593 288.519 777.066 289.853 783.108 287.818C787.23 286.414 790.002 283.466 791.637 278.694C788.509 280.448 786.661 283.115 783.392 283.045C782.61 283.045 781.615 283.466 781.189 282.484C780.833 281.501 781.899 281.01 782.468 280.659C787.23 277.922 791.21 274.413 794.48 269.991C794.977 269.289 795.617 268.658 796.541 269.219C797.607 269.781 797.394 270.693 796.967 271.676C796.47 272.869 795.83 273.851 795.83 275.255C795.83 283.186 790.215 289.923 781.118 291.888C772.873 293.713 763.846 289.432 761.074 282.484C760.435 280.799 759.653 280.799 758.231 281.641C755.175 283.536 751.763 284.8 748.21 284.168C746.006 283.747 745.011 284.519 743.732 285.923C740.534 289.362 738.259 293.081 738.259 297.994C738.259 299.117 737.904 300.801 736.056 300.521C734.279 300.24 734.919 298.766 734.848 297.713C734.634 292.801 736.767 288.66 739.823 285.01C741.386 283.115 741.6 282.133 739.183 280.799C733.426 277.641 729.73 272.588 726.674 266.973C726.105 265.921 725.039 264.587 726.745 263.675C728.38 262.833 728.877 264.447 729.659 265.429C731.578 268.096 733 270.974 735.558 273.149C736.553 273.22 737.264 273.921 738.046 274.343C747.428 278.975 755.673 275.044 757.663 264.868C757.947 263.394 757.876 261.85 757.734 260.376C752.972 252.305 746.291 246.48 737.051 243.813C736.198 244.305 735.203 244.094 734.279 244.164C728.664 244.655 725.252 247.743 723.547 252.867C723.262 253.779 723.12 254.691 722.623 255.464C717.221 263.956 718.145 273.43 718.784 282.694C719.069 286.765 718.856 290.484 717.576 294.345C715.799 299.468 712.388 303.468 708.692 307.258C698.812 317.154 687.938 325.927 677.561 335.261C665.478 346.209 653.253 357.017 641.099 367.896C639.82 369.019 638.043 369.931 638.398 372.036C653.964 384.95 667.468 399.548 676.921 417.514C678.911 417.655 679.764 416.041 680.901 414.918C692.7 403.759 703.361 391.547 714.307 379.686C722.694 370.633 731.152 361.72 738.97 352.175C742.453 347.894 745.722 343.472 749.134 339.121C754.678 332.103 760.435 325.295 765.481 317.996C768.324 313.785 771.807 310.486 776 307.749C780.122 305.082 784.316 302.345 788.083 299.187C799.171 289.642 806.065 278.203 803.222 262.762Z" fill="#F9CC03"/>
<path d="M488.856 206.196C495.608 200.721 503.284 196.861 512.098 196.23C523.967 195.387 534.344 199.107 542.873 207.389C544.579 209.003 545.574 209.073 547.138 207.318C551.189 202.686 556.449 199.949 562.277 198.195C572.227 195.177 581.751 196.581 590.991 200.932C592.555 200.02 592.271 198.546 591.915 197.212C591.062 194.194 589.712 191.457 586.798 189.913C584.381 188.65 583.386 186.825 583.031 184.088C580.827 167.455 575.141 152.155 564.196 139.101C559.931 133.978 555.098 129.346 548.844 126.398C547.706 125.626 546.285 125.416 545.361 124.363C532.709 119.661 519.703 118.538 506.412 120.503C502.574 123.661 499.02 127.1 495.821 131.03C487.932 140.575 483.099 151.313 482.317 163.595C481.393 178.614 483.099 193.422 486.511 208.09C487.221 207.529 488.003 206.897 488.856 206.196Z" fill="#F9CC03"/>
<path d="M632.428 596.62C623.259 592.69 613.664 590.163 603.927 588.409C591.773 586.233 579.406 584.689 567.252 582.443C565.475 582.092 563.698 581.952 562.277 583.355C559.576 586.093 559.576 586.163 562.206 588.759C563.343 589.812 564.48 590.935 563.769 592.69C563.059 594.374 561.566 595.076 559.86 595.286C557.586 595.567 555.667 594.795 554.316 592.9C553.179 591.356 553.606 589.812 554.53 588.338C555.525 586.864 557.088 585.952 558.439 584.899C559.292 584.198 560.997 583.706 559.86 582.022C559.149 581.531 558.297 581.39 557.515 581.39C543.3 581.39 529.156 580.759 515.012 582.724C506.34 583.917 497.74 585.461 489.069 586.724C478.266 588.268 467.747 591.005 457.512 594.725C456.09 595.216 454.456 595.567 454.456 597.602C455.522 597.673 456.588 597.602 457.654 597.813C473.859 600.62 490.277 601.884 506.625 603.217C520.129 604.34 533.633 605.042 547.209 605.322C567.821 605.673 588.432 605.673 609.044 604.2C618.639 603.498 628.163 602.375 637.617 600.48C636.835 597.813 634.347 597.462 632.428 596.62Z" fill="#F9CC03"/>
<path d="M585.234 259.955C586.158 253.428 580.046 246.901 572.725 247.182C568.247 247.322 563.769 247.393 559.363 247.954C555.098 248.516 550.763 249.077 546.711 250.832C543.797 254.481 540.599 257.85 536.619 260.517C529.227 265.5 520.982 267.816 512.098 267.465C504.35 267.114 497.172 264.868 490.633 260.587C491.912 270.412 490.704 280.378 492.054 290.204C498.096 282.624 505.914 277.431 515.083 274.202C522.759 271.535 530.79 270.763 538.893 270.342C543.086 267.535 547.635 266.061 552.824 266.763C563.84 268.167 574.288 266.201 584.239 261.359C584.594 260.868 584.95 260.376 585.234 259.955Z" fill="#F9CC03"/>
<path d="M268.949 252.656C260.562 247.182 251.251 249.919 247.058 259.183C247.2 263.113 249.901 265.921 251.393 269.219C252.175 269.43 253.028 269.64 253.455 270.412C256.866 275.887 261.913 279.817 266.888 283.747C271.152 288.59 279.113 289.572 284.088 285.853C287.926 282.063 286.931 277.641 285.723 273.22C283.306 263.956 276.838 257.78 268.949 252.656Z" fill="#F9CC03"/>
<path d="M502.005 369.791C507.549 369.861 513.093 369.791 518.636 370.001C526.17 370.212 532.709 372.387 538.04 378.283C545.929 386.985 552.539 396.6 559.434 406.005C563.058 410.988 562.987 410.988 565.973 405.794C566.47 404.811 566.541 403.829 566.47 402.706C566.044 391.056 564.409 379.476 563.414 367.896C563.343 366.843 563.201 365.79 562.348 365.018C561.566 365.229 560.784 365.509 560.002 365.79C549.91 369.51 539.604 371.685 528.729 369.791C518.423 368.036 509.041 364.036 500.583 358C500.654 362 500.086 366.001 502.005 369.791Z" fill="#F9CC03"/>
<path d="M289.632 261.991C291.906 257.499 295.531 254.13 299.227 250.972C301.288 249.217 301.715 247.252 300.933 245.077C298.587 238.058 294.678 232.374 286.86 230.479C283.875 230.058 281.6 232.163 279.042 232.935C272.147 235.041 270.513 240.094 274.706 245.919C278.402 251.042 283.093 255.323 286.647 260.517C287.286 261.359 288.21 262.271 289.632 261.991Z" fill="#F9CC03"/>
<path d="M762.78 263.113C764.201 262.692 764.628 261.64 765.339 260.868C770.172 255.323 775.645 250.761 782.823 248.516C788.225 246.761 788.225 246.761 784.955 241.567C784.671 241.076 784.245 240.655 783.889 240.234C775.147 234.76 766.192 236.655 760.861 245.357C759.368 247.814 757.805 250.34 756.667 253.007C759.084 256.165 761.501 259.324 762.78 263.113Z" fill="#F9CC03"/>
<path d="M312.447 243.673C318.275 243.743 324.104 243.673 330.287 245.217C329.008 240.866 327.302 237.286 324.885 234.058C321.758 229.917 318.986 225.285 313.158 224.232C310.67 224.513 309.391 226.268 308.112 228.092C304.984 232.724 307.685 240.023 312.447 243.673Z" fill="#F9CC03"/>
<path d="M463.482 291.607C463.624 291.748 463.909 291.607 464.193 291.537C469.097 291.046 470.376 288.73 468.6 283.817C467.533 283.817 466.609 283.396 465.685 282.764C457.654 277.711 450.262 279.606 445.216 287.888C446.424 289.642 447.775 291.116 450.191 290.835C454.811 288.66 459.218 288.73 463.482 291.607Z" fill="#F9CC03"/>
<path d="M746.148 243.673C748.067 245.147 748.92 244.445 749.702 242.55C751.621 237.848 754.891 234.128 758.942 231.11C758.8 230.97 758.658 230.689 758.444 230.619C752.9 229.496 742.666 233.918 739.68 238.62C739.112 239.532 739.467 240.094 739.823 240.866C742.026 241.567 744.3 242.269 746.148 243.673Z" fill="#F9CC03"/>
<path d="M588.29 263.535C587.295 265.289 587.508 266.202 589.427 266.763C590.28 267.044 591.133 267.324 592.057 267.605C592.839 263.815 592.91 260.096 591.417 256.376C590.351 258.762 589.57 261.289 588.29 263.535Z" fill="#F9CC03"/>
<path d="M556.377 590.795C556.306 592.268 557.799 592.689 559.007 592.9C560.073 592.9 561.424 593.251 561.566 591.707C561.708 590.233 560.287 589.742 559.22 589.601C558.154 589.461 556.449 589.321 556.377 590.795Z" fill="#F9CC03"/>
<path d="M514.372 237.848C517.709 237.848 520.413 235.177 520.413 231.882C520.413 228.588 517.709 225.917 514.372 225.917C511.035 225.917 508.331 228.588 508.331 231.882C508.331 235.177 511.035 237.848 514.372 237.848Z" fill="#110D0D"/>
<path d="M587.295 228.864C590.632 228.864 593.336 226.194 593.336 222.899C593.336 219.604 590.632 216.933 587.295 216.933C583.958 216.933 581.254 219.604 581.254 222.899C581.254 226.194 583.958 228.864 587.295 228.864Z" fill="#110D0D"/>
<g filter="url(#filter0_d_284_1013)">
<path d="M654.851 99.921C656.631 100.014 658.922 100.183 661.723 100.428C664.058 100.632 665.885 101.263 667.204 102.319C668.762 103.522 669.444 105.229 669.25 107.439C669.114 108.996 668.51 110.339 667.439 111.468C666.3 112.655 664.952 113.18 663.396 113.044L658.824 112.597L654.247 112.196C650.786 111.956 647.749 111.894 645.135 112.011C642.963 112.103 641.1 112.238 639.547 112.416C637.327 112.692 635.364 113.085 633.657 113.595C629.148 114.925 626.161 117.158 624.695 120.292C623.779 122.157 623.442 124.213 623.685 126.462C623.919 128.804 624.691 130.738 626 132.264C626.912 133.316 628.242 133.887 629.991 133.978C630.583 134.029 631.352 134.018 632.3 133.944L633.437 133.856L634.523 133.81C636.345 133.781 638.617 133.807 641.339 133.888L644.76 134.046L648.185 134.158C650.876 134.236 652.996 134.751 654.544 135.702C656.627 136.982 657.091 138.858 655.934 141.329C654.538 144.375 650.859 145.732 644.896 145.398C643.897 145.342 642.683 145.236 641.254 145.08L639.484 144.878L637.76 144.68C635.057 144.381 633.117 144.321 631.941 144.5C627.934 145.122 625.551 148.16 624.791 153.615C624.548 155.319 624.423 157.645 624.416 160.593L624.46 162.244L624.461 163.844C624.451 165.035 624.414 165.988 624.352 166.704L624.217 168.245L623.985 169.825C623.782 171.062 623.489 172.087 623.104 172.901C622.135 175.012 620.421 175.96 617.961 175.744C615.627 175.54 614.05 174.383 613.23 172.272C612.645 170.715 612.467 168.629 612.696 166.014C613.093 161.469 613.169 154.512 612.922 145.142C612.877 143.507 612.753 141.331 612.552 138.616L612.273 135.345L612.046 132.031C611.776 126.863 612.05 122.48 612.867 118.881C615.146 109.324 621.756 103.331 632.697 100.9C636.856 99.9778 641.771 99.5452 647.444 99.6024C649.699 99.6428 652.168 99.749 654.851 99.921Z" fill="#F9CC03"/>
</g>
<g filter="url(#filter1_d_284_1013)">
<path d="M780.346 140.568C782.123 141.414 782.844 143.218 782.508 145.98C782.137 149.148 780.85 151.482 778.648 152.983C776.613 154.374 773.977 154.927 770.739 154.644C770.194 154.784 769.791 155.8 769.532 157.691L769.417 158.998L769.303 160.306C769.236 161.429 769.171 162.176 769.107 162.547C768.893 163.909 768.645 165.675 768.361 167.846L767.657 173.196C767.095 177.476 766.486 181.03 765.831 183.859C765.677 184.535 765.528 185.165 765.383 185.749C765.151 186.607 764.923 187.418 764.699 188.183C764.053 190.196 763.324 191.889 762.514 193.261C760.208 197.389 757.465 198.623 754.285 196.965C752.125 195.835 751.229 193.529 751.596 190.048C751.689 188.989 751.936 187.599 752.338 185.878L752.564 184.909L752.785 183.988C752.941 183.28 753.054 182.709 753.123 182.276C754.634 172.182 756.062 162.128 757.409 152.113C755.701 152.277 753.339 152.024 750.323 151.352L748.48 150.908L746.683 150.469C745.239 150.123 744.038 149.877 743.078 149.73C741.436 149.492 740.369 148.599 739.877 147.05C739.46 145.728 739.554 144.293 740.16 142.746C740.771 141.137 741.704 139.979 742.958 139.273C744.44 138.462 746.005 138.505 747.652 139.402C748.91 140.077 750.877 140.719 753.553 141.33C756.472 142.024 758.262 142.181 758.923 141.8C759.631 139.446 760.756 137.349 762.297 135.507C764.326 133.112 766.495 132.157 768.806 132.642C770.59 133.049 771.693 134.243 772.115 136.225C772.271 136.96 772.322 137.812 772.268 138.779C772.268 139.501 772.233 140.078 772.164 140.511L772.639 140.459L773.734 140.319C774.718 140.186 775.51 140.098 776.109 140.056C777.939 139.934 779.352 140.105 780.346 140.568Z" fill="#F9CC03"/>
</g>
<g filter="url(#filter2_d_284_1013)">
<path d="M704.282 147.522C704.41 147.502 704.964 147.44 705.945 147.338C709.683 146.567 711.578 144.27 711.63 140.448C711.656 139.07 711.467 137.297 711.06 135.128L710.754 133.784L710.449 132.439C710.204 131.289 710.029 130.426 709.922 129.852C709.853 129.564 709.792 129.182 709.74 128.707L709.653 128.088L709.57 127.422C709.416 126.31 709.262 125.387 709.106 124.652C708.547 122.439 707.629 121.104 706.351 120.647C703.915 119.806 701.747 121.467 699.845 125.63C699.191 127.016 698.556 128.717 697.94 130.733L697.601 131.927C697.514 132.202 697.42 132.554 697.32 132.985C697.091 133.812 696.934 134.347 696.85 134.59C695.302 139.38 695.145 142.786 696.38 144.807C697.722 147.026 700.911 147.87 705.945 147.338C706.265 147.272 706.251 147.255 705.903 147.287C705.648 147.328 705.283 147.374 704.808 147.427C704.364 147.482 704.189 147.514 704.282 147.522ZM721.259 135.267C721.565 137.866 721.803 140.695 721.975 143.753C722.04 144.448 722.172 145.621 722.373 147.269L722.505 148.457L722.679 149.696C722.835 150.776 722.96 151.681 723.053 152.411C723.655 157.357 724.002 161.465 724.092 164.736C724.329 175.297 721.981 180.44 717.048 180.165C714.068 179.81 712.589 178.065 712.613 174.93C712.609 173.895 712.791 172.53 713.159 170.837L713.385 169.869L713.615 168.854C713.808 168.087 713.937 167.502 714.004 167.1C714.659 163.55 714.082 161.005 712.272 159.467C710.898 158.311 708.317 157.521 704.527 157.095C704.34 157.079 704.077 157.04 703.737 156.979L703.317 156.942L702.803 156.897C701.966 156.793 701.22 156.712 700.566 156.655C698.576 156.449 696.816 156.311 695.285 156.24C690.809 156.13 687.939 156.663 686.676 157.839C685.686 158.756 684.732 159.975 683.815 161.494L682.701 163.467L681.634 165.444C679.825 168.548 677.501 170.557 674.661 171.469C671.693 172.401 669.792 171.905 668.956 169.982C668.229 168.255 668.446 165.953 669.607 163.075C671.302 158.768 673.663 153.47 676.692 147.178L680.535 139.28C682.064 136.151 683.311 133.547 684.277 131.467L684.678 130.655L685.086 129.75C685.435 128.996 685.744 128.333 686.013 127.761C686.82 126.074 687.58 124.557 688.294 123.208C690.321 119.401 692.335 116.284 694.335 113.855C700.016 107.011 705.667 105.702 711.289 109.927C714.939 112.662 717.699 117.875 719.567 125.567C720.255 128.451 720.819 131.684 721.259 135.267Z" fill="#F9CC03"/>
</g>
<g filter="url(#filter3_d_284_1013)">
<path d="M293.404 124.993C293.102 119.028 295.82 116.218 301.56 116.563C305.631 116.489 308.918 119.103 311.421 124.405C313.537 128.862 314.997 134.977 315.802 142.749C316.496 149.245 316.678 155.989 316.349 162.982C316.059 169.344 315.483 173.88 314.622 176.59C312.378 183.562 308.933 186.499 304.288 185.399C300.732 184.55 296.037 181.086 290.204 175.009C288.411 173.158 285.945 170.425 282.805 166.81L280.979 164.759L279.199 162.703C277.843 161.19 276.681 159.912 275.711 158.867C270.45 153.242 266.563 150.398 264.048 150.336C263.193 152.042 262.931 155.139 263.261 159.627C263.363 161.155 263.577 163.238 263.902 165.876L264.285 169.183L264.626 172.542C265.185 177.857 265.243 181.93 264.801 184.76C264.259 188.603 262.777 191.023 260.354 192.019C254.637 194.433 250.863 189.132 249.035 176.117C248.402 171.749 248.041 166.731 247.953 161.06C247.9 159.026 247.897 157.019 247.943 155.038C247.937 154.255 247.951 153.516 247.985 152.823C247.998 152.257 248.017 151.754 248.041 151.312C248.283 146.555 249.509 142.997 251.718 140.639C254.072 138.143 257.661 136.857 262.485 136.78C265.278 136.786 267.867 137.516 270.253 138.97C271.015 139.437 272.068 140.176 273.411 141.188L274.22 141.823L275.028 142.458C275.697 142.933 276.298 143.351 276.832 143.712C280.197 145.958 284.438 150.152 289.555 156.291L292.492 159.752C293.577 161.037 294.554 162.159 295.422 163.119C297.7 165.491 299.859 167.404 301.9 168.857C301.795 160.491 300.075 150.509 296.739 138.912C296.647 138.575 296.514 138.131 296.34 137.582L296.135 136.847L295.875 136.023C295.438 134.618 295.085 133.457 294.817 132.539C293.99 129.537 293.519 127.022 293.404 124.993Z" fill="#F9CC03"/>
</g>
<g filter="url(#filter4_d_284_1013)">
<path d="M355.755 109.643C361.857 109.109 367.787 111.994 373.546 118.297C379.336 124.598 382.616 132.153 383.387 140.963C384.089 148.274 380.233 154.932 371.818 160.938C364.399 166.136 356.631 169.137 348.514 169.941C343.409 170.388 339.279 167.832 336.127 162.273C333.917 158.168 332.56 153.237 332.056 147.477C331.285 138.667 332.689 130.687 336.267 123.535C340.579 115.096 347.075 110.465 355.755 109.643ZM345.697 145.813C345.662 146.13 345.619 146.354 345.568 146.484C345.545 146.58 345.209 147.221 344.56 148.407C343.911 149.593 343.626 150.637 343.705 151.54C343.833 153.003 344.795 154.503 346.592 156.04L350.246 157.461C351.283 157.841 352.878 157.968 355.031 157.843L358.972 157.168C360.92 156.841 363.596 154.443 367 149.973C370.405 145.503 371.907 140.619 371.506 135.321C371.158 131.336 369.684 127.764 367.086 124.603C364.012 121.014 360.42 119.399 356.311 119.758L354.684 119.994C351.073 120.31 348.525 123.09 347.038 128.333C345.74 133.215 345.293 139.042 345.697 145.813Z" fill="#F9CC03"/>
</g>
<g filter="url(#filter5_d_284_1013)">
<path d="M425.262 102.965C427.158 103.489 428.181 105.14 428.33 107.919C428.515 111.103 427.653 113.625 425.746 115.486C423.983 117.208 421.483 118.211 418.245 118.495C417.732 118.728 417.512 119.798 417.585 121.705L417.699 123.013L417.813 124.32C417.943 125.438 418.008 126.185 418.01 126.561C418.036 127.939 418.098 129.722 418.195 131.909L418.431 137.3C418.621 141.612 418.638 145.218 418.484 148.118C418.45 148.811 418.413 149.457 418.371 150.057C418.292 150.942 418.208 151.781 418.121 152.573C417.834 154.668 417.41 156.462 416.851 157.954C415.296 162.419 412.809 164.111 409.39 163.03C407.066 162.292 405.783 160.177 405.541 156.685C405.448 155.626 405.45 154.214 405.547 152.449L405.601 151.456L405.659 150.51C405.69 149.786 405.702 149.205 405.695 148.766C405.43 138.563 405.091 128.413 404.678 118.317C403.024 118.775 400.654 118.936 397.568 118.798L395.675 118.681L393.83 118.56C392.347 118.47 391.121 118.437 390.151 118.459C388.492 118.51 387.287 117.815 386.533 116.375C385.892 115.145 385.736 113.716 386.064 112.088C386.387 110.397 387.104 109.095 388.216 108.182C389.535 107.125 391.084 106.896 392.861 107.493C394.218 107.939 396.267 108.231 399.008 108.367C402.003 108.544 403.793 108.388 404.378 107.897C404.666 105.457 405.41 103.196 406.608 101.115C408.19 98.4039 410.161 97.0865 412.52 97.1624C414.348 97.2535 415.641 98.2382 416.402 100.117C416.682 100.814 416.88 101.643 416.996 102.606C417.121 103.316 417.187 103.891 417.194 104.329L417.653 104.195L418.706 103.868C419.652 103.565 420.417 103.341 421 103.196C422.781 102.758 424.202 102.681 425.262 102.965Z" fill="#F9CC03"/>
</g>
<defs>
<filter id="filter0_d_284_1013" x="607.221" y="96.261" width="67.5808" height="87.4177" filterUnits="userSpaceOnUse" color-interpolation-filters="sRGB">
<feFlood flood-opacity="0" result="BackgroundImageFix"/>
<feColorMatrix in="SourceAlpha" type="matrix" values="0 0 0 0 0 0 0 0 0 0 0 0 0 0 0 0 0 0 127 0" result="hardAlpha"/>
<feOffset dx="5" dy="4"/>
<feComposite in2="hardAlpha" operator="out"/>
<feColorMatrix type="matrix" values="0 0 0 0 0.176471 0 0 0 0 0.176471 0 0 0 0 0.176471 0 0 0 0.5 0"/>
<feBlend mode="normal" in2="BackgroundImageFix" result="effect1_dropShadow_284_1013"/>
<feBlend mode="normal" in="SourceGraphic" in2="effect1_dropShadow_284_1013" result="shape"/>
</filter>
<filter id="filter1_d_284_1013" x="734.679" y="129.75" width="54.0593" height="75.345" filterUnits="userSpaceOnUse" color-interpolation-filters="sRGB">
<feFlood flood-opacity="0" result="BackgroundImageFix"/>
<feColorMatrix in="SourceAlpha" type="matrix" values="0 0 0 0 0 0 0 0 0 0 0 0 0 0 0 0 0 0 127 0" result="hardAlpha"/>
<feOffset dx="5" dy="4"/>
<feComposite in2="hardAlpha" operator="out"/>
<feColorMatrix type="matrix" values="0 0 0 0 0.176471 0 0 0 0 0.176471 0 0 0 0 0.176471 0 0 0 0.5 0"/>
<feBlend mode="normal" in2="BackgroundImageFix" result="effect1_dropShadow_284_1013"/>
<feBlend mode="normal" in="SourceGraphic" in2="effect1_dropShadow_284_1013" result="shape"/>
</filter>
<filter id="filter2_d_284_1013" x="667.13" y="101.036" width="68.8376" height="83.774" filterUnits="userSpaceOnUse" color-interpolation-filters="sRGB">
<feFlood flood-opacity="0" result="BackgroundImageFix"/>
<feColorMatrix in="SourceAlpha" type="matrix" values="0 0 0 0 0 0 0 0 0 0 0 0 0 0 0 0 0 0 127 0" result="hardAlpha"/>
<feOffset dx="5" dy="4"/>
<feComposite in2="hardAlpha" operator="out"/>
<feColorMatrix type="matrix" values="0 0 0 0 0.176471 0 0 0 0 0.176471 0 0 0 0 0.176471 0 0 0 0.5 0"/>
<feBlend mode="normal" in2="BackgroundImageFix" result="effect1_dropShadow_284_1013"/>
<feBlend mode="normal" in="SourceGraphic" in2="effect1_dropShadow_284_1013" result="shape"/>
</filter>
<filter id="filter3_d_284_1013" x="243.779" y="114.248" width="81.3159" height="85.5146" filterUnits="userSpaceOnUse" color-interpolation-filters="sRGB">
<feFlood flood-opacity="0" result="BackgroundImageFix"/>
<feColorMatrix in="SourceAlpha" type="matrix" values="0 0 0 0 0 0 0 0 0 0 0 0 0 0 0 0 0 0 127 0" result="hardAlpha"/>
<feOffset dx="5" dy="4"/>
<feComposite in2="hardAlpha" operator="out"/>
<feColorMatrix type="matrix" values="0 0 0 0 0.176471 0 0 0 0 0.176471 0 0 0 0 0.176471 0 0 0 0.5 0"/>
<feBlend mode="normal" in2="BackgroundImageFix" result="effect1_dropShadow_284_1013"/>
<feBlend mode="normal" in="SourceGraphic" in2="effect1_dropShadow_284_1013" result="shape"/>
</filter>
<filter id="filter4_d_284_1013" x="328.951" y="107.474" width="61.78" height="67.7257" filterUnits="userSpaceOnUse" color-interpolation-filters="sRGB">
<feFlood flood-opacity="0" result="BackgroundImageFix"/>
<feColorMatrix in="SourceAlpha" type="matrix" values="0 0 0 0 0 0 0 0 0 0 0 0 0 0 0 0 0 0 127 0" result="hardAlpha"/>
<feOffset dx="5" dy="4"/>
<feComposite in2="hardAlpha" operator="out"/>
<feColorMatrix type="matrix" values="0 0 0 0 0.176471 0 0 0 0 0.176471 0 0 0 0 0.176471 0 0 0 0.5 0"/>
<feBlend mode="normal" in2="BackgroundImageFix" result="effect1_dropShadow_284_1013"/>
<feBlend mode="normal" in="SourceGraphic" in2="effect1_dropShadow_284_1013" result="shape"/>
</filter>
<filter id="filter5_d_284_1013" x="384.232" y="95.439" width="54.0593" height="75.3448" filterUnits="userSpaceOnUse" color-interpolation-filters="sRGB">
<feFlood flood-opacity="0" result="BackgroundImageFix"/>
<feColorMatrix in="SourceAlpha" type="matrix" values="0 0 0 0 0 0 0 0 0 0 0 0 0 0 0 0 0 0 127 0" result="hardAlpha"/>
<feOffset dx="5" dy="4"/>
<feComposite in2="hardAlpha" operator="out"/>
<feColorMatrix type="matrix" values="0 0 0 0 0.176471 0 0 0 0 0.176471 0 0 0 0 0.176471 0 0 0 0.5 0"/>
<feBlend mode="normal" in2="BackgroundImageFix" result="effect1_dropShadow_284_1013"/>
<feBlend mode="normal" in="SourceGraphic" in2="effect1_dropShadow_284_1013" result="shape"/>
</filter>
</defs>
</svg>
